<svg width="14" height="14" viewBox="0 0 14 14" fill="none" xmlns="http://www.w3.org/2000/svg">
<path d="M6.99967 9.6661C8.47241 9.6661 9.66634 8.47216 9.66634 6.99943C9.66634 5.52667 8.47241 4.33276 6.99967 4.33276C5.52691 4.33276 4.33301 5.52667 4.33301 6.99943C4.33301 8.47216 5.52691 9.6661 6.99967 9.6661Z" stroke="#006DEE" stroke-width="1.23573" stroke-linecap="round" stroke-linejoin="round"/>
<path d="M1 9.66667V4.33333C1 2.49239 2.49239 1 4.33333 1H9.66667C11.5076 1 13 2.49239 13 4.33333V9.66667C13 11.5076 11.5076 13 9.66667 13H4.33333C2.49239 13 1 11.5076 1 9.66667Z" stroke="#006DEE" stroke-width="1.23573"/>
<path d="M10.667 3.34111L10.6745 3.33276" stroke="#006DEE" stroke-width="1.23573" stroke-linecap="round" stroke-linejoin="round"/>
</svg>
