<svg width="13" height="15" viewBox="0 0 13 15" fill="none" xmlns="http://www.w3.org/2000/svg">
<path d="M1.56246 0.996094C0.699019 0.996094 0.000139692 1.70781 0 2.58354C0 3.46013 0.69888 4.1717 1.5626 4.1717C2.42394 4.1717 3.1238 3.46013 3.1238 2.58354C3.1238 1.70767 2.4238 0.996094 1.56246 0.996094Z" fill="#006DEE"/>
<path d="M2.9086 5.375H0.214355V14.1868H2.9086V5.375Z" fill="#006DEE"/>
<path d="M9.76843 5.15625C8.45784 5.15625 7.57903 5.88671 7.21933 6.5794H7.18329V5.37536H4.59926H4.59912V14.1871H7.29099V9.82786C7.29099 8.67863 7.50625 7.56547 8.90793 7.56547C10.2895 7.56547 10.3079 8.87985 10.3079 9.90156V14.1869H13.0002V9.35371C13.0002 6.98127 12.4966 5.15625 9.76843 5.15625Z" fill="#006DEE"/>
</svg>
