<svg width="16" height="16" viewBox="0 0 16 16" fill="none" xmlns="http://www.w3.org/2000/svg">
<g clip-path="url(#clip0_6012_7179)">
<path d="M8.50071 0C8.79349 0.0400555 9.08752 0.0726007 9.37874 0.121731C12.4857 0.644644 15.0578 3.06206 15.7814 6.13601C16.7885 10.4144 14.2277 14.6994 9.9524 15.7353C6.81321 16.4957 4.1121 15.6091 1.94896 13.2093C0.785032 11.9178 0.169094 10.3666 0.0266166 8.63134C0.0228589 8.58566 0.00908095 8.54059 0 8.49522C0 8.16194 0 7.82898 0 7.49571C0.0228589 7.30544 0.0428996 7.11487 0.0695162 6.92523C0.298419 5.29922 0.95256 3.86661 2.05574 2.64961C3.29169 1.28616 4.81916 0.435604 6.63786 0.12048C6.92375 0.071036 7.21278 0.0397426 7.50055 0C7.83404 0 8.16722 0 8.50071 0ZM0.802568 7.98701C0.796305 11.9572 4.00031 15.1707 7.9834 15.1892C11.9486 15.2077 15.1909 11.9782 15.1984 8.00172C15.2062 4.02777 11.9806 0.801111 8 0.801737C4.02505 0.80205 0.808517 4.01338 0.802568 7.98701V7.98701Z" fill="#006DEE"/>
<path d="M4.68652 8L6.68652 10.5L11.6865 6" stroke="#006DEE" stroke-linecap="round"/>
</g>
<defs>
<clipPath id="clip0_6012_7179">
<rect width="16" height="16" fill="white"/>
</clipPath>
</defs>
</svg>
