<svg width="29" height="22" viewBox="0 0 29 22" fill="none" xmlns="http://www.w3.org/2000/svg">
<path d="M0.278438 21.69C0.788437 19.5367 1.32677 17.2133 1.89344 14.72C2.4601 12.2267 2.9701 9.79 3.42344 7.41C3.87677 5.03 4.2451 2.84833 4.52844 0.864999L12.6034 0.864999L13.1984 1.8C12.6884 3.78333 12.0368 5.90833 11.2434 8.175C10.4501 10.4983 9.57177 12.8217 8.60844 15.145C7.6451 17.4683 6.7101 19.65 5.80344 21.69L0.278438 21.69ZM16.0034 21.69C16.5134 19.5367 17.0518 17.2133 17.6184 14.72C18.1851 12.2267 18.6951 9.79 19.1484 7.41C19.6018 5.03 19.9701 2.84833 20.2534 0.865L28.2434 0.865001L28.7534 1.8C28.2434 3.78334 27.5918 5.90834 26.7984 8.175C26.0051 10.4983 25.1551 12.8217 24.2484 15.145C23.2851 17.4683 22.3501 19.65 21.4434 21.69L16.0034 21.69Z" fill="#006DEE"/>
</svg>
