<svg width="29" height="22" viewBox="0 0 29 22" fill="none" xmlns="http://www.w3.org/2000/svg">
<path d="M28.7216 0.309996C28.2116 2.46333 27.6732 4.78666 27.1066 7.28C26.5399 9.77333 26.0299 12.21 25.5766 14.59C25.1232 16.97 24.7549 19.1517 24.4716 21.135H16.3966L15.8016 20.2C16.3116 18.2167 16.9632 16.0917 17.7566 13.825C18.5499 11.5017 19.4282 9.17833 20.3916 6.855C21.3549 4.53166 22.2899 2.35 23.1966 0.309996H28.7216ZM12.9966 0.309996C12.4866 2.46333 11.9482 4.78666 11.3816 7.28C10.8149 9.77333 10.3049 12.21 9.85156 14.59C9.39823 16.97 9.0299 19.1517 8.74656 21.135H0.756563L0.246563 20.2C0.756563 18.2167 1.40823 16.0917 2.20156 13.825C2.9949 11.5017 3.8449 9.17833 4.75156 6.855C5.7149 4.53166 6.6499 2.35 7.55656 0.309996H12.9966Z" fill="#006DEE"/>
</svg>
