<svg width="7" height="13" viewBox="0 0 7 13" fill="none" xmlns="http://www.w3.org/2000/svg">
<path d="M0.209677 6.9238H1.63469V12.7903C1.63469 12.9061 1.72854 13 1.84436 13H4.26052C4.37635 13 4.4702 12.9061 4.4702 12.7903V6.95144H6.10837C6.21488 6.95144 6.3045 6.87151 6.31666 6.7657L6.56546 4.60594C6.5723 4.54652 6.55347 4.48701 6.51371 4.44244C6.47392 4.39782 6.41697 4.37228 6.35721 4.37228H4.47028V3.01843C4.47028 2.61032 4.69002 2.40336 5.12347 2.40336C5.18524 2.40336 6.35721 2.40336 6.35721 2.40336C6.47304 2.40336 6.56689 2.30947 6.56689 2.19369V0.211229C6.56689 0.0954032 6.47304 0.00155161 6.35721 0.00155161H4.65694C4.64494 0.000964516 4.61831 0 4.57906 0C4.28405 0 3.2586 0.0579128 2.44857 0.803106C1.55107 1.6289 1.67583 2.61766 1.70564 2.78909V4.37224H0.209677C0.0938516 4.37224 0 4.46609 0 4.58191V6.71408C0 6.82991 0.0938516 6.9238 0.209677 6.9238Z" fill="#006DEE"/>
</svg>
