<svg width="14" height="12" viewBox="0 0 14 12" fill="none" xmlns="http://www.w3.org/2000/svg">
<path d="M13.0477 1.72034C12.8434 1.81149 12.6335 1.88841 12.4189 1.95086C12.6729 1.66182 12.8666 1.32172 12.9848 0.949546C13.0113 0.866124 12.9838 0.774812 12.9157 0.720252C12.8476 0.66565 12.7531 0.65911 12.6781 0.703795C12.2225 0.975708 11.7309 1.17112 11.2155 1.28539C10.6963 0.774896 9.99111 0.484375 9.26211 0.484375C7.72329 0.484375 6.47135 1.74406 6.47135 3.29241C6.47135 3.41435 6.47903 3.53563 6.49421 3.65521C4.58468 3.48651 2.80943 2.54212 1.59037 1.03744C1.54693 0.983809 1.48 0.954905 1.41148 0.960433C1.34291 0.965834 1.28131 1.00474 1.24667 1.06453C0.999421 1.49143 0.868708 1.97968 0.868708 2.47646C0.868708 3.15307 1.10879 3.79505 1.53288 4.29668C1.40393 4.25174 1.27879 4.19557 1.15936 4.12886C1.09524 4.09295 1.01699 4.0935 0.953292 4.13026C0.88955 4.16701 0.849586 4.23461 0.847909 4.30849C0.847615 4.32094 0.847615 4.33339 0.847615 4.346C0.847615 5.35597 1.38783 6.26526 2.21374 6.76085C2.14279 6.75372 2.07188 6.74338 2.00142 6.72984C1.92879 6.71587 1.85411 6.74148 1.80512 6.79722C1.75606 6.85292 1.73983 6.93057 1.76243 7.00146C2.06814 7.96184 2.85523 8.66825 3.80674 8.88362C3.01756 9.38098 2.11507 9.6415 1.16767 9.6415C0.969982 9.6415 0.771167 9.62982 0.576587 9.60665C0.479926 9.59509 0.3875 9.65252 0.354581 9.74501C0.321662 9.83755 0.356552 9.94072 0.438787 9.99376C1.65588 10.779 3.06319 11.194 4.50849 11.194C7.34977 11.194 9.1272 9.84586 10.1179 8.71487C11.3533 7.30463 12.0619 5.438 12.0619 3.59365C12.0619 3.5166 12.0607 3.43879 12.0584 3.36123C12.5458 2.99172 12.9654 2.54452 13.3069 2.03053C13.3588 1.95247 13.3532 1.8493 13.2931 1.77744C13.2331 1.70553 13.133 1.68228 13.0477 1.72034Z" fill="#006DEE"/>
</svg>
