<svg width="15" height="12" viewBox="0 0 15 12" fill="none" xmlns="http://www.w3.org/2000/svg">
<path d="M14.4153 1.71743C13.8739 1.08578 12.8742 0.828125 10.965 0.828125H4.03481C2.08195 0.828125 1.06534 1.1024 0.525919 1.77489C0 2.43057 0 3.39666 0 4.73376V7.28226C0 9.87264 0.624 11.1878 4.03481 11.1878H10.9651C12.6207 11.1878 13.5381 10.9605 14.1316 10.4031C14.7403 9.83142 15 8.89809 15 7.28226V4.73376C15 3.32368 14.9593 2.35189 14.4153 1.71743ZM9.63005 6.35985L6.48305 7.97393C6.41269 8.01002 6.33576 8.02792 6.25892 8.02792C6.17192 8.02792 6.08511 8.00494 6.00823 7.95926C5.86345 7.87317 5.77505 7.71917 5.77505 7.55307V4.33526C5.77505 4.16944 5.86321 4.01559 6.00769 3.92945C6.15223 3.84331 6.33198 3.83742 6.48194 3.91387L9.62893 5.51755C9.78905 5.59913 9.8896 5.76135 9.88984 5.93832C9.89003 6.11545 9.78992 6.27789 9.63005 6.35985Z" fill="#006DEE"/>
</svg>
